<?xml version="1.0" encoding="utf-8"?>
<!-- Generator: Adobe Illustrator 16.0.0, SVG Export Plug-In . SVG Version: 6.00 Build 0)  -->
<!DOCTYPE svg PUBLIC "-//W3C//DTD SVG 1.1//EN" "http://www.w3.org/Graphics/SVG/1.1/DTD/svg11.dtd">
<svg version="1.1" id="Layer_1" xmlns="http://www.w3.org/2000/svg" xmlns:xlink="http://www.w3.org/1999/xlink" x="0px" y="0px"
	 width="242px" height="90px" viewBox="0 20 242 90" style="enable-background:new 0 20 242 90;" xml:space="preserve">
<style type="text/css">
<![CDATA[
	.st0{fill:#470A68;}
	.st1{fill:#808080;}
]]>
</style>
<g>
	<g>
		<path class="st0" d="M122.5,20l-13.2,32l-5.8-32H92.4L80.8,52l-4.4-19.2H64.9l9,37h11.3c1.8-4.9,3.6-10,5.5-15.1
			c1.9-5.2,3.8-10.2,5.6-15.2l5.6,30.3H113L134.3,20H122.5z"/>
		<polygon class="st0" points="73.5,20 61.7,20 23.9,20 23.9,29.7 41.2,29.7 41.2,69.8 52.3,69.8 52.3,29.7 64.1,29.7 75.7,29.7 		
			"/>
		<path class="st1" d="M206.3,20L200,52l-12.6-32h-11.1l-4.8,32l-14.1-32h-11.7l22.7,49.7h11.3c0.7-4.9,1.5-10,2.3-15.1
			c0.8-5.2,1.6-10.2,2.4-15.2l11.9,30.3h11.3L218.1,20H206.3z"/>
		<polygon class="st1" points="129.1,60.1 125.3,69.8 156.3,69.8 152,60.1 		"/>
		<polygon class="st1" points="147.8,50.5 140.1,33.1 133.1,50.5 		"/>
	</g>
	<g>
		<g>
			<path class="st1" d="M1.4,103.8v1.8h3.5v1.2H1.4v1.7h4v1.2H0v-7.3h5.4v1.2L1.4,103.8L1.4,103.8z"/>
			<path class="st1" d="M14.7,109.8h-2.9v-7.3h2.9c1.1,0,1.9,0.3,2.5,0.9c0.3,0.3,0.7,0.7,0.8,1.1c0.2,0.5,0.2,1,0.2,1.6
				s-0.1,1.1-0.2,1.6c-0.2,0.5-0.5,0.8-0.8,1.1c-0.3,0.3-0.7,0.5-1.1,0.7C15.7,109.8,15.2,109.8,14.7,109.8z M13.2,108.6h1.6
				c0.2,0,0.5,0,0.8-0.1c0.2-0.1,0.5-0.2,0.7-0.3c0.2-0.2,0.4-0.4,0.6-0.7c0.2-0.3,0.2-0.7,0.2-1.2s-0.1-0.9-0.2-1.2
				c-0.2-0.3-0.3-0.6-0.6-0.7c-0.2-0.2-0.5-0.3-0.7-0.3c-0.2-0.1-0.5-0.1-0.8-0.1h-1.5L13.2,108.6L13.2,108.6z"/>
			<path class="st1" d="M27.7,110c-0.5,0-0.9-0.1-1.3-0.2c-0.4-0.2-0.7-0.3-1-0.7c-0.2-0.2-0.5-0.6-0.7-1c-0.2-0.4-0.2-0.8-0.2-1.2
				v-4.3h1.4v4.3c0,0.3,0.1,0.7,0.2,0.9c0.1,0.2,0.2,0.4,0.4,0.6c0.2,0.2,0.3,0.2,0.6,0.3c0.2,0.1,0.4,0.1,0.6,0.1
				c0.2,0,0.3,0,0.6-0.1c0.2-0.1,0.4-0.2,0.6-0.3c0.2-0.2,0.3-0.3,0.4-0.6s0.2-0.6,0.2-0.9v-4.3h1.4v4.3c0,0.5-0.1,0.9-0.2,1.2
				c-0.2,0.4-0.3,0.7-0.7,1c-0.2,0.2-0.6,0.5-1,0.7C28.7,109.9,28.2,110,27.7,110z"/>
			<path class="st1" d="M44.2,108c-0.2,0.3-0.3,0.6-0.6,0.8c-0.2,0.2-0.5,0.4-0.7,0.6c-0.2,0.2-0.6,0.3-0.9,0.4s-0.7,0.2-1,0.2
				c-0.5,0-1-0.1-1.5-0.3c-0.5-0.2-0.9-0.5-1.2-0.8c-0.3-0.3-0.7-0.7-0.8-1.2c-0.2-0.5-0.3-1-0.3-1.5c0-0.5,0.1-1,0.3-1.5
				c0.2-0.5,0.5-0.9,0.8-1.2c0.3-0.3,0.7-0.7,1.2-0.8c0.5-0.2,1-0.3,1.5-0.3c0.3,0,0.7,0.1,1,0.2s0.7,0.2,0.9,0.4
				c0.2,0.2,0.6,0.4,0.7,0.6c0.2,0.2,0.4,0.5,0.6,0.8l-1.3,0.5c-0.1-0.2-0.2-0.3-0.4-0.4c-0.2-0.2-0.3-0.2-0.5-0.4
				c-0.2-0.1-0.3-0.2-0.6-0.2c-0.2-0.1-0.4-0.1-0.6-0.1c-0.3,0-0.7,0.1-0.9,0.2c-0.3,0.2-0.6,0.3-0.7,0.6c-0.2,0.2-0.4,0.5-0.5,0.8
				c-0.2,0.3-0.2,0.7-0.2,1c0,0.3,0.1,0.7,0.2,1c0.2,0.3,0.3,0.6,0.5,0.8c0.2,0.2,0.5,0.4,0.7,0.6c0.3,0.2,0.6,0.2,0.9,0.2
				c0.2,0,0.4,0,0.6-0.1c0.2-0.1,0.4-0.2,0.6-0.2s0.3-0.2,0.5-0.4c0.2-0.2,0.2-0.3,0.4-0.5L44.2,108z"/>
			<path class="st1" d="M49.2,109.8l3.8-7.3h0.2l3.8,7.3h-1.6l-0.6-1.1h-3.4l-0.6,1.1H49.2z M51.9,107.5h2l-1.1-2.2L51.9,107.5z"/>
			<path class="st1" d="M66.5,103.8h-2v6.1H63v-6.1h-2.1v-1.2h5.6L66.5,103.8L66.5,103.8z"/>
			<path class="st1" d="M73.9,103.8v1.8h3.5v1.2h-3.5v1.7h4v1.2h-5.4v-7.3h5.4v1.2L73.9,103.8L73.9,103.8z"/>
			<path class="st1" d="M94.1,103.8v1.8h3.5v1.2h-3.5v1.7h4v1.2h-5.4v-7.3h5.4v1.2L94.1,103.8L94.1,103.8z"/>
			<path class="st1" d="M111.4,108.6v1.3h-3.6c-0.7,0-1.2-0.1-1.8-0.3c-0.5-0.2-0.9-0.5-1.2-0.8c-0.3-0.3-0.6-0.7-0.7-1.1
				c-0.2-0.5-0.2-0.9-0.2-1.5c0-0.5,0.1-1,0.3-1.5c0.2-0.5,0.5-0.8,0.8-1.1c0.3-0.3,0.7-0.6,1.1-0.8c0.4-0.2,0.9-0.3,1.5-0.3
				c0.5,0,1,0.1,1.5,0.3c0.5,0.2,0.8,0.5,1.1,0.8c0.3,0.3,0.6,0.7,0.8,1.1c0.2,0.5,0.3,0.9,0.3,1.5c0,0.2,0,0.4-0.1,0.7
				c-0.1,0.2-0.2,0.5-0.2,0.7c-0.1,0.2-0.2,0.4-0.4,0.6c-0.2,0.2-0.4,0.3-0.7,0.5L111.4,108.6L111.4,108.6z M105.3,106.2
				c0,0.3,0.1,0.7,0.2,0.9c0.1,0.3,0.3,0.6,0.5,0.7c0.2,0.2,0.5,0.4,0.7,0.5c0.2,0.2,0.6,0.2,0.9,0.2c0.3,0,0.7-0.1,0.9-0.2
				c0.2-0.2,0.5-0.3,0.7-0.5c0.2-0.2,0.4-0.5,0.5-0.7c0.1-0.2,0.2-0.6,0.2-0.9c0-0.3-0.1-0.7-0.2-0.9c-0.1-0.3-0.3-0.6-0.5-0.7
				c-0.2-0.2-0.5-0.4-0.7-0.5c-0.2-0.2-0.6-0.2-0.9-0.2c-0.3,0-0.7,0.1-0.9,0.2c-0.2,0.2-0.5,0.3-0.7,0.5c-0.2,0.2-0.4,0.5-0.5,0.7
				C105.3,105.5,105.3,105.8,105.3,106.2z"/>
			<path class="st1" d="M120.6,110c-0.5,0-0.9-0.1-1.3-0.2c-0.4-0.2-0.7-0.3-1-0.7c-0.2-0.2-0.5-0.6-0.7-1c-0.2-0.4-0.2-0.8-0.2-1.2
				v-4.3h1.4v4.3c0,0.3,0.1,0.7,0.2,0.9c0.1,0.2,0.2,0.4,0.4,0.6c0.2,0.2,0.3,0.2,0.6,0.3c0.2,0.1,0.4,0.1,0.6,0.1
				c0.2,0,0.3,0,0.6-0.1c0.2-0.1,0.4-0.2,0.6-0.3c0.2-0.2,0.3-0.3,0.4-0.6c0.1-0.2,0.2-0.6,0.2-0.9v-4.3h1.4v4.3
				c0,0.5-0.1,0.9-0.2,1.2c-0.2,0.4-0.3,0.7-0.7,1c-0.2,0.2-0.6,0.5-1,0.7C121.5,109.9,121,110,120.6,110z"/>
			<path class="st1" d="M131.9,109.8h-1.4v-7.3h1.4V109.8z"/>
			<path class="st1" d="M141.9,102.6c0.3,0,0.7,0.1,1,0.2c0.3,0.2,0.6,0.3,0.8,0.6c0.2,0.2,0.4,0.5,0.6,0.8c0.2,0.3,0.2,0.7,0.2,1
				c0,0.3-0.1,0.7-0.2,1c-0.1,0.3-0.3,0.6-0.5,0.8c-0.2,0.2-0.5,0.4-0.9,0.6c-0.3,0.2-0.7,0.2-1.2,0.2h-1.6v2.2h-1.4v-7.3
				L141.9,102.6L141.9,102.6z M141.9,106.4c0.2,0,0.4,0,0.6-0.1c0.2-0.1,0.2-0.2,0.4-0.2c0.1-0.1,0.2-0.2,0.2-0.4
				c0.1-0.2,0.1-0.3,0.1-0.5c0-0.2,0-0.3-0.1-0.5c-0.1-0.2-0.2-0.3-0.2-0.4c-0.1-0.2-0.2-0.2-0.4-0.3c-0.2-0.1-0.3-0.1-0.6-0.1h-1.7
				v2.6L141.9,106.4L141.9,106.4z"/>
			<path class="st1" d="M160.2,103.8v1.8h3.5v1.2h-3.5v1.7h4v1.2h-5.4v-7.3h5.4v1.2L160.2,103.8L160.2,103.8z"/>
			<path class="st1" d="M177.7,102.6v7.3h-1.4v-3.7l-2.3,2.8l-2.3-2.8v3.7h-1.4v-7.3h0.1l3.6,4.2L177.7,102.6L177.7,102.6z"/>
			<path class="st1" d="M187.6,102.6c0.3,0,0.7,0.1,1,0.2c0.3,0.2,0.6,0.3,0.8,0.6c0.2,0.2,0.4,0.5,0.6,0.8c0.2,0.3,0.2,0.7,0.2,1
				c0,0.3-0.1,0.7-0.2,1c-0.1,0.3-0.3,0.6-0.5,0.8c-0.2,0.2-0.5,0.4-0.9,0.6c-0.3,0.2-0.7,0.2-1.2,0.2h-1.6v2.2h-1.4v-7.3
				L187.6,102.6L187.6,102.6z M187.6,106.4c0.2,0,0.4,0,0.6-0.1c0.2-0.1,0.2-0.2,0.4-0.2c0.1-0.1,0.2-0.2,0.2-0.4
				c0.1-0.2,0.1-0.3,0.1-0.5c0-0.2,0-0.3-0.1-0.5c-0.1-0.2-0.2-0.3-0.2-0.4c-0.1-0.2-0.2-0.2-0.4-0.3c-0.2-0.1-0.3-0.1-0.6-0.1h-1.7
				v2.6L187.6,106.4L187.6,106.4z"/>
			<path class="st1" d="M199.5,110c-0.5,0-1-0.1-1.5-0.3c-0.5-0.2-0.9-0.5-1.2-0.8c-0.3-0.3-0.7-0.7-0.8-1.2c-0.2-0.5-0.3-1-0.3-1.5
				c0-0.5,0.1-1,0.3-1.5c0.2-0.5,0.5-0.9,0.8-1.2c0.3-0.3,0.7-0.7,1.2-0.8c0.5-0.2,1-0.3,1.5-0.3c0.5,0,1,0.1,1.5,0.3
				c0.5,0.2,0.9,0.5,1.2,0.8c0.3,0.3,0.7,0.7,0.8,1.2c0.2,0.5,0.3,1,0.3,1.5c0,0.5-0.1,1-0.3,1.5c-0.2,0.5-0.5,0.9-0.8,1.2
				c-0.3,0.3-0.7,0.6-1.2,0.8C200.5,109.9,200,110,199.5,110z M199.6,103.7c-0.3,0-0.7,0.1-0.9,0.2c-0.3,0.2-0.6,0.3-0.7,0.6
				c-0.2,0.2-0.4,0.5-0.5,0.8c-0.2,0.3-0.2,0.7-0.2,1c0,0.3,0.1,0.7,0.2,1c0.2,0.3,0.3,0.6,0.5,0.8c0.2,0.2,0.5,0.4,0.7,0.6
				c0.3,0.2,0.6,0.2,0.9,0.2c0.3,0,0.7-0.1,0.9-0.2c0.3-0.2,0.6-0.3,0.7-0.6c0.2-0.2,0.4-0.5,0.5-0.8c0.2-0.3,0.2-0.7,0.2-1
				c0-0.3-0.1-0.7-0.2-1c-0.2-0.3-0.3-0.6-0.5-0.8c-0.2-0.2-0.5-0.4-0.7-0.6C200.1,103.8,199.9,103.7,199.6,103.7z"/>
			<path class="st1" d="M218.2,102.6l-2.7,7.3h-0.2l-2-4.3l-2,4.3h-0.2l-2.7-7.3h1.5l1.4,4l1.9-4h0.1l1.9,4l1.5-4H218.2z"/>
			<path class="st1" d="M225.5,103.8v1.8h3.5v1.2h-3.5v1.7h4v1.2h-5.4v-7.3h5.4v1.2L225.5,103.8L225.5,103.8z"/>
			<path class="st1" d="M237.3,109.8h-1.4v-7.3h3.4c0.4,0,0.7,0.1,1.1,0.2c0.3,0.2,0.6,0.3,0.8,0.5c0.2,0.2,0.4,0.5,0.5,0.8
				c0.1,0.3,0.2,0.7,0.2,1c0,0.6-0.2,1.1-0.4,1.5c-0.2,0.4-0.7,0.7-1.1,0.9c0.6,0.8,1.2,1.6,1.8,2.5h-1.6c-0.3-0.4-0.6-0.7-0.8-1.1
				c-0.2-0.4-0.6-0.8-0.8-1.1h-1.4L237.3,109.8L237.3,109.8z M237.3,106.3h1.9c0.2,0,0.2,0,0.4-0.1c0.2-0.1,0.2-0.2,0.3-0.2
				s0.2-0.2,0.2-0.4c0.1-0.2,0.1-0.3,0.1-0.6c0-0.1,0-0.2,0-0.4c0-0.2-0.1-0.2-0.2-0.4c-0.1-0.2-0.2-0.2-0.3-0.3
				c-0.2-0.1-0.3-0.2-0.6-0.2h-1.9V106.3L237.3,106.3z"/>
		</g>
		<g>
			<path class="st0" d="M19.3,81.1c-0.3,0.5-0.7,1.1-1.1,1.6c-3.9,6.4-6.8,9.6-9.4,11.2c-2.8,1.7-5.4,1.9-6,1.9
				c-1.6,0-2.9-0.7-2.9-2.1c0-3.8,6.5-7.4,9.8-7.4h0.3h0.1c0,0,0.1,0,0.1,0.1c0.1,0.1,0.1,0.1,0.1,0.2s-0.1,0.2-0.2,0.2
				c-4.6,0.8-8,4.7-8,7c0,0.9,0.6,1.3,1.5,1.3c1.6,0,4-1.1,5.8-3.1c2.5-2.7,5-7,8.6-12.2c0.7-1.1,2.1-1.1,2.8-1.1
				c0.1,0,0.1,0.1,0.2,0.1c0.1,0.1,0.1,0.2,0.1,0.2s0,0.1-0.1,0.1C20.5,79.3,19.9,80.3,19.3,81.1z M26.7,78.9
				c-3.3,0-8.6-2.8-12.1-2.8c-3.1,0-6.9,2-6.9,4.3c0,1.1,1.9,1.1,2.6,1.1c1.5,0,2.7-0.3,3.6-0.7c0.6-0.2,1.1-0.4,1.5-0.7
				c0.2-0.2,0.4-0.2,0.5-0.2c0.2,0,0.2,0.1,0.2,0.2c0,0.2-0.1,0.2-0.3,0.4c-2.9,2-5.9,2.3-7.2,2.3c-1.1,0-2.7-0.2-2.7-1.5
				c0-2.2,4.4-6.6,10.3-6.6c3.9,0,9.2,2.8,12.8,2.8c0.2,0,0.3,0,0.5,0c0,0,0.1,0,0.2,0s0.2,0.1,0.2,0.2s-0.1,0.2-0.2,0.2
				C28.7,78.8,27.5,78.9,26.7,78.9z"/>
			<path class="st0" d="M21.9,95.1c-1.3,0-1.3-0.8-1.3-1.2c0.1-1.7,2.1-4.3,2.7-5.2c0.6-0.7,1.9-2.4,1.9-2.7c0-0.1-0.1-0.2-0.2-0.2
				c-1.8,0-8.3,6.9-9.7,8.8c-0.2,0.4-1,0.4-1.2,0.4c-0.2,0-0.6-0.1-0.7-0.1s-0.2-0.1-0.2-0.2s0-0.2,0.1-0.2c1.3-2.3,3.2-5.1,4.7-7.2
				c0.9-1.3,1.8-2.5,2.7-3.8c0.8-1.1,1.6-2.3,2.4-3.3c1.3-1.7,2.9-3.6,3.8-4.2c1.1-0.7,2-1.1,3.7-1.1c0,0,0.1,0,0.2,0
				s0.2,0.1,0.2,0.2c0,0.1-0.1,0.2-0.3,0.2c-1,0.2-2,1-2.7,1.6c-0.4,0.4-0.9,0.9-1.2,1.4c-1.1,1.3-2.9,3.8-4.8,6.5
				c-1.1,1.6-2.7,3.8-3.5,5.1c0,0,0,0,0,0.1v0.1c0,0.1,0,0.1,0.1,0.1c0,0,0.1,0,0.2-0.1c0-0.1,6-5.8,8.6-5.8c0.2,0,0.8,0,0.8,0.5
				c0,0.2-0.1,0.3-0.2,0.6c-0.7,1.4-5.2,6.6-5.2,8.2c0,0.2,0.1,0.4,0.3,0.4c1,0,1.9-0.8,2.7-1.6s1.9-1.7,3-2.9l0.1-0.1
				c0.1,0,0.2,0.1,0.2,0.3c0,0.2-0.1,0.3-0.2,0.6c-0.2,0.2-0.4,0.5-0.7,0.7c-0.4,0.4-1.1,1.1-1.7,1.6C24.9,93.9,23.1,95.1,21.9,95.1
				z"/>
			<path class="st0" d="M37.7,89.5C37.8,89.5,37.8,89.4,37.7,89.5c0.2-0.1,0.2,0.1,0.2,0.2c0,0.2-0.1,0.3-0.2,0.6
				c-0.2,0.2-0.4,0.5-0.7,0.7c-0.4,0.4-1.1,1.1-1.7,1.6c-1.8,1.5-3.6,2.6-5.6,2.6c-1.9,0-2.3-1.2-2.3-2.3c0-3.8,4.3-8.9,8.4-8.9
				c1.2,0,1.8,0.5,1.8,1.1c0,1.6-2.8,4.2-7.4,5.1c0,0,0,0-0.1,0l-0.1,0.1c-0.4,0.8-0.6,1.6-0.6,2.5c0,1.1,0.5,1.6,1.2,1.6
				c1.3,0,3.4-1.4,4-2C35.5,91.7,36.6,90.7,37.7,89.5z M30.6,89.7c2.8-0.2,5.2-3.3,5.2-4.4c0-0.3-0.2-0.5-0.5-0.5
				C33.5,84.8,31.1,88.2,30.6,89.7L30.6,89.7L30.6,89.7z"/>
			<path class="st0" d="M67.7,77.3c0-0.5-0.2-0.9-0.7-0.9c-1,0-2,1-2.5,1.6c0,0.1-0.1,0.1-0.2,0.2c-0.2,0.1-0.2,0.2-0.3,0.2
				c-0.1,0-0.2-0.1-0.2-0.2c0-0.2,0.1-0.3,0.2-0.5c0.1-0.1,0.2-0.2,0.2-0.2c2-2.5,4.3-2.6,4.6-2.6c1.1,0,1.4,0.7,1.4,1.6
				c0,6-9.8,16-14.2,18.4c-0.3,0.2-1.1,0.7-1.7,0.7s-1.1-0.3-1.1-1.6c0-2,0.9-5,1.9-7.4c0.6-1.5,1.1-2.9,1.9-4.3
				C57,82.1,57,82,57,81.9c0,0,0-0.1-0.1-0.1c-0.1,0-0.1,0-0.2,0.1L56.7,82c-0.2,0.1-1.1,1-1.9,1.9c-0.4,0.5-0.9,1.1-1.5,1.6
				c-2.8,3.1-4.8,5.2-6.3,6.5c-0.8,0.8-1.6,1.5-2.2,2c-1.2,0.9-1.9,1.2-2.4,1.2c-0.6,0-0.7-0.7-0.7-1.1c0-2.9,3.1-8.5,3.3-8.7
				c0.8-1.5,1.6-2.7,2.2-3.9c1.1-2,2.3-4.3,2.5-4.8c0,0,0-0.1,0.1-0.2c0-0.1,0.1-0.2,0.1-0.2c0-0.2-0.1-0.5-0.6-0.5
				c-2.2,0-5.8,2.2-5.8,3.7c0,0.3,0.2,0.7,1,0.7c0.2,0,0.4,0,0.6,0c0.3,0,0.7-0.1,1.1-0.2h0.1c0,0,0.1,0,0.2,0
				c0.1,0,0.2,0.1,0.2,0.2c0,0.6-2.4,1.1-2.7,1.1c-0.1,0-0.2,0-0.2,0c-0.2,0-0.4,0.1-0.7,0.1c-0.7,0-1.5-0.2-1.6-0.8
				c0-0.3,0.1-1.5,2.6-3.2c0.7-0.4,1.4-0.8,2.1-1.1c1.3-0.6,3.1-1.1,5-1.1c0.6,0,1.5,0,1.5,0.7c0,0.5-0.5,1.6-4,7.8
				c0.1-0.3-4,7.1-4,8.8c0,0.2,0,0.5,0.3,0.5c0.2,0,0.4-0.2,0.7-0.3c0.6-0.5,1.3-1.1,2.2-1.9c1.5-1.4,3.6-3.6,6.7-7.1
				c0.7-0.7,1.2-1.4,1.8-2c1-1,2-2,2.4-2.3c0.1-0.1,0.2-0.1,0.4-0.2c0.2-0.1,0.6-0.2,1-0.2c0.2,0,0.7,0,0.7,0.3
				c-1,1.7-1.8,3.4-2.5,5.2c-1.3,2.9-2.6,6.3-2.6,8.6c0,0.3,0.1,0.8,0.6,0.8c0.2,0,0.4-0.1,0.7-0.2C60.8,91,67.7,81.8,67.7,77.3z"/>
			<path class="st0" d="M74.5,89.5C74.5,89.5,74.5,89.4,74.5,89.5c0.2-0.1,0.2,0.1,0.2,0.2c0,0.2-0.1,0.3-0.2,0.6
				c-0.2,0.2-0.4,0.5-0.7,0.7c-0.4,0.4-1.1,1.1-1.7,1.6c-1.8,1.5-3.7,2.6-5.7,2.6c-1.9,0-2.3-1.2-2.3-2.3c0-3.8,4.3-8.9,8.4-8.9
				c1.2,0,1.8,0.5,1.8,1.1c0,1.6-2.8,4.2-7.4,5.1c0,0,0,0-0.1,0l-0.1,0.1c-0.4,0.8-0.6,1.6-0.6,2.5c0,1.1,0.5,1.6,1.2,1.6
				c1.3,0,3.4-1.4,4-2C72.3,91.7,73.3,90.7,74.5,89.5z M67.3,89.7c2.8-0.2,5.2-3.3,5.2-4.4c0-0.3-0.2-0.5-0.5-0.5
				C70.3,84.8,67.9,88.2,67.3,89.7L67.3,89.7L67.3,89.7z"/>
			<path class="st0" d="M73.5,95.4c-0.5,0-1.1-0.2-1.1-1.1c0-0.6,0.2-1.4,0.7-2.6c0.7-1.2,1.8-3.2,2.9-4.9c0.7-1,1.3-2,2-3.1
				c3.4-4.5,5.6-8.6,10-8.6c0.2,0,0.2,0.1,0.2,0.2c0,0.2-0.1,0.2-0.3,0.2c-0.8,0.1-1.9,0.9-2.6,1.6c-0.5,0.4-0.9,0.9-1.4,1.4
				c-2.8,3.4-7.9,10.6-9.2,13.8c-0.1,0.2-0.2,0.4-0.2,0.6c-0.2,0.3-0.2,0.7-0.2,1c0,0.2,0.1,0.5,0.3,0.5c0.8,0,2.1-1.1,2.9-1.8
				c0.8-0.7,1.9-1.7,3-2.9l0.1-0.1c0.1,0,0.2,0.1,0.2,0.3c0,0.2-0.1,0.3-0.2,0.6c-0.2,0.2-0.4,0.5-0.7,0.7c-0.4,0.4-1.1,1.1-1.7,1.6
				C76.7,94,75,95.4,73.5,95.4z"/>
			<path class="st0" d="M79.7,95.4c-0.5,0-1.1-0.2-1.1-1.1c0-0.6,0.2-1.4,0.7-2.6c0.7-1.2,1.8-3.2,2.9-4.9c0.7-1,1.3-2,2-3.1
				c3.4-4.5,5.6-8.6,10-8.6c0.2,0,0.2,0.1,0.2,0.2c0,0.2-0.1,0.2-0.3,0.2c-0.8,0.1-1.8,0.9-2.6,1.6c-0.5,0.4-0.9,0.9-1.4,1.4
				c-2.8,3.4-7.9,10.6-9.2,13.8c-0.1,0.2-0.2,0.4-0.2,0.6c-0.2,0.3-0.2,0.7-0.2,1c0,0.2,0.1,0.5,0.3,0.5c0.8,0,2.1-1.1,2.9-1.8
				c0.8-0.7,1.9-1.7,3-2.9l0.1-0.1c0.1,0,0.2,0.1,0.2,0.3c0,0.2-0.1,0.3-0.2,0.6c-0.2,0.2-0.4,0.5-0.7,0.7c-0.4,0.4-1.1,1.1-1.7,1.6
				C82.8,94,81,95.4,79.7,95.4z"/>
			<path class="st0" d="M106.6,94.9c0-2.1,1.8-4.1,1.8-5.6c0-1.6-2-2.7-3.5-3.3l-0.3,0.3c-2.2,2.3-4.1,3.9-5.4,5.1
				c-0.8,0.7-1.5,1.2-2.1,1.7c-3,2.3-5.6,2.5-6.7,2.5c-1.5,0-3.3-0.4-3.3-2c0-3.9,7.2-7.5,10.9-7.5h0.3c0.1,0,0.1,0,0.1,0l0.1,0.1
				c0.1,0,0.1,0.1,0.1,0.2c0,0.1-0.1,0.2-0.2,0.2c-4.9,0.7-9,4.7-9,7.2c0,0.8,0.7,1.1,1.4,1.1c0.7,0,2.6-0.2,5-1.7
				c0.6-0.3,1.2-0.8,2-1.5c1.3-1.1,3.3-2.9,6-5.6l0.1-0.1c0.1-0.1,0.2-0.2,0.2-0.2l-0.7-0.2c-0.6-0.2-0.7-0.4-0.7-0.5
				c0-0.7,1.2-0.8,1.4-0.8l1.7-0.2c3-3,8.7-8.3,12.9-9.3c0.1,0,0.2-0.1,0.3-0.1c0.2-0.1,0.4-0.1,0.7-0.1c0.2,0,0.4,0.1,0.4,0.2
				c0,0.2-0.1,0.2-0.2,0.5c-0.5,0.7-1.1,1.3-1.6,2.2c-1.1,1.5-2.4,3.5-3.9,6.2c0.5,0,0.7,0,1.1,0.1c0.2,0,0.2,0,0.4,0
				c1,0.1,1.1,0.3,1.1,0.5s-0.2,0.2-0.4,0.2c-0.2,0-0.7-0.1-2.5-0.1c-1,1.7-2,3.5-3,5.6c-0.4,0.8-0.8,1.6-1.1,2.5
				c-0.7,1.4-1.2,3.1-1.2,4.4c0,0.3,0,0.7,0.2,1v0.1c0,0.1,0,0.2-0.2,0.2c-0.1,0-0.2,0-0.2-0.1C107.1,97.2,106.6,96,106.6,94.9z
				 M105.7,85.1c-0.1,0.1-0.1,0.2-0.1,0.2s0,0.2,0.1,0.2l0.1,0.1c1.5,0.7,2.3,1.2,2.8,1.7c0.2,0.2,0.4,0.5,0.5,0.7
				c0.1,0.1,0.1,0.1,0.2,0.1s0.1,0,0.2-0.1c0,0,0-0.1,0.1-0.1c0.7-1.3,1.4-2.6,2.2-3.9C107.9,84.2,106.2,84.6,105.7,85.1L105.7,85.1
				z M115.1,78.7c0.5-0.7,0.9-1.4,1.3-2c0.1-0.1,0.2-0.2,0.2-0.2s-0.1-0.1-0.2-0.1c-0.1,0-0.2,0-0.3,0.1c-0.1,0-0.2,0-0.2,0.1
				c-2.5,1.2-6.3,4.7-8.8,7.2c2-0.2,3.6-0.2,4.9-0.2C113.2,81.5,114.3,79.9,115.1,78.7z"/>
			<path class="st0" d="M123.9,84.2c0.4,0,0.7,0.2,0.7,0.7c0,0.4-0.3,1.1-1.4,2.5c-0.5,0.5-1.2,1.4-1.2,2.4c0,0,0,0.1-0.1,0.1
				c0,0.1-0.1,0.1-0.2,0.1c-0.4,0-1.2-0.6-1.2-1.4c0-1,1.4-1.8,1.4-2.5c0-0.2-0.1-0.2-0.2-0.2c-0.5,0-2.7,1.4-4.7,3.6
				c-1.5,1.5-2.9,3.3-3.9,5.2c-0.2,0.4-0.5,0.4-1.1,0.4c-0.2,0-0.8,0-0.8-0.2c0-0.1,0-0.2,0.1-0.2c2.3-3.8,5.2-8.2,6.5-9.8
				c0.1-0.1,0.2-0.2,0.2-0.2c0.2-0.2,0.6-0.2,1.2-0.2c0.6,0,0.7,0,0.7,0.2c0,0,0,0.1-0.1,0.2c0,0.1-0.1,0.1-0.1,0.2
				c-1.1,1.6-1.8,2.2-2.8,3.6c0,0.1,0,0.2,0.1,0.2c0,0,0.1,0,0.2-0.1C118.5,86.9,121.9,84.2,123.9,84.2z"/>
			<path class="st0" d="M128.6,94.5c-0.2,0.2-0.7,0.4-1.2,0.4c-0.2,0-0.8,0-0.8-0.2c0,0,0-0.1,0.1-0.2c0.9-1.2,5.9-8,5.9-8.7
				c0-0.1-0.1-0.2-0.2-0.2c-0.2,0-0.3,0.1-0.6,0.2c-2.1,1.1-4.5,3.4-6.3,5.2c-1.1,1.1-2,2.3-3,3.5c-0.2,0.4-0.7,0.4-1.2,0.4
				c-0.4,0-0.8,0-0.8-0.2c0-0.1,0-0.2,0.1-0.2c2.2-3.7,5.7-8.7,7-10.3c0.1-0.1,0.2-0.2,0.2-0.2c0.2-0.2,0.6-0.2,1.2-0.2
				c0.7,0,0.8,0.1,0.8,0.2c0,0,0,0.1-0.1,0.2c0,0.1-0.1,0.1-0.1,0.2c-1.1,1.5-4.2,5.5-4.2,5.8c0,0,0,0.1,0.1,0.1c0,0,0.1,0,0.2-0.1
				c0.2-0.2,6-5.8,8.5-5.8c0.2,0,0.8,0.1,0.8,0.6c0,1.1-2.9,4.6-2.9,4.7c0,0.1,0,0.1,0.1,0.1c0.1,0,0.2-0.1,0.2-0.2
				c1.3-1.4,5.9-5.4,8.2-5.4c0.2,0,0.8,0.1,0.8,0.6c0,1.2-5.6,7.2-5.6,9.2c0,0.2,0.2,0.5,0.4,0.5c0.8,0,2-1.2,2.8-1.9
				c0.8-0.7,1.9-1.7,3-2.9l0.1-0.1c0.1,0,0.2,0.1,0.2,0.3c0,0.2-0.1,0.3-0.2,0.6c-0.2,0.2-0.4,0.5-0.7,0.7c-0.4,0.4-1.1,1.1-1.7,1.6
				c-0.6,0.5-1.1,1-1.6,1.4c-1,0.7-2,1.4-2.9,1.4c-1.1,0-1.1-0.8-1.1-1.1c0-2.8,5-7.9,5-8.7c0-0.1-0.1-0.2-0.2-0.2
				c-0.1,0-0.2,0-0.2,0.1c-0.1,0-0.1,0-0.2,0.1C134.2,87.8,129.5,93.3,128.6,94.5z"/>
			<path class="st0" d="M150.9,89.5C150.9,89.5,150.9,89.4,150.9,89.5c0.2-0.1,0.2,0.1,0.2,0.2c0,0.2-0.1,0.3-0.2,0.6
				c-0.2,0.2-0.4,0.5-0.7,0.7c-0.4,0.4-1.1,1.1-1.7,1.6c-1.7,1.5-3.6,2.6-5.6,2.6c-1.9,0-2.2-1.2-2.2-2.3c0-3.8,4.3-8.9,8.4-8.9
				c1.2,0,1.8,0.5,1.8,1.1c0,1.6-2.8,4.2-7.4,5.1c0,0,0,0-0.1,0l-0.1,0.1c-0.4,0.7-0.7,1.6-0.7,2.4c0,1.1,0.5,1.6,1.2,1.6
				c1.3,0,3.4-1.4,4-2C148.7,91.7,149.7,90.7,150.9,89.5z M143.7,89.7c2.8-0.2,5.2-3.3,5.2-4.4c0-0.3-0.2-0.5-0.5-0.5
				C146.7,84.8,144.3,88.2,143.7,89.7L143.7,89.7L143.7,89.7z"/>
			<path class="st0" d="M163,81.1c1.4-1.9,3-3.9,4-4.6c0.3-0.2,0.7-0.5,1.1-0.7c0.7-0.4,1.6-0.7,2.7-0.7c0.2,0,0.5,0,0.5,0.2
				c0,0.1-0.1,0.2-0.3,0.2c-0.9,0.2-1.8,0.9-2.6,1.6c-0.4,0.4-0.9,0.9-1.3,1.4c-0.9,1.1-2.5,3.2-4,5.2c-0.7,0.9-1.3,1.8-2,2.7
				c-1.1,1.6-2.4,3.5-3.3,5.2c-0.1,0.2-0.2,0.4-0.2,0.6c-0.2,0.3-0.2,0.7-0.2,1c0,0.2,0.1,0.4,0.4,0.4c0.8,0,1.6-0.8,2.2-1.3
				c0.8-0.7,1.8-1.7,3-2.9l0.1-0.1c0.1,0,0.2,0.1,0.2,0.3c0,0.2-0.1,0.3-0.2,0.6c-0.2,0.2-0.4,0.5-0.7,0.7c-0.4,0.4-1.1,1.1-1.7,1.6
				c-1.4,1.2-3,2.5-4.3,2.5c-0.8,0-1-0.7-1-1c0-1.9,2.5-5.3,2.6-5.4c0.1-0.1,0.1-0.2,0.1-0.2c0,0,0-0.1-0.1-0.1c-0.1,0-0.1,0-0.2,0
				l-0.1,0.1c-1.1,0.9-3.9,4.3-5.6,5.5c-0.6,0.4-1.4,1-2,1c-0.5,0-0.7-0.2-0.7-1.1c0-3.9,4.7-9.7,9.3-9.7c1.1,0,1.6,0.5,1.8,0.5
				c0.1,0,0.1,0,0.1-0.1C161.4,83.3,162.2,82.2,163,81.1z M151.9,93c0.2,0,0.3-0.1,0.5-0.2c1.4-1,4.1-4.3,7.4-7.3
				c0.1-0.1,0.1-0.1,0.1-0.2c0-0.2-0.6-0.6-1.2-0.6c-2.9,0-7.1,6-7.1,7.8C151.5,92.8,151.7,93,151.9,93z"/>
			<path class="st0" d="M192.7,77.3c0-0.5-0.2-0.9-0.7-0.9c-1,0-2,1-2.5,1.6c0,0.1-0.1,0.1-0.2,0.2c-0.2,0.1-0.2,0.2-0.3,0.2
				s-0.2-0.1-0.2-0.2c0-0.2,0.1-0.3,0.2-0.5c0.1-0.1,0.2-0.2,0.2-0.2c2-2.5,4.3-2.6,4.6-2.6c1.1,0,1.4,0.7,1.4,1.6
				c0,6-9.8,16-14.2,18.4c-0.3,0.2-1.1,0.7-1.7,0.7c-0.7,0-1.1-0.3-1.1-1.6c0-2,0.9-5,1.9-7.4c0.6-1.5,1.1-2.9,1.9-4.3
				c0.1-0.1,0.1-0.2,0.1-0.2c0,0,0-0.1-0.1-0.1c0,0-0.1,0-0.2,0.1l-0.1,0.1c-0.4,0.2-1.2,1.2-2,2c-0.4,0.5-0.9,1.1-1.5,1.6
				c-2.8,3.1-4.8,5.2-6.3,6.5c-0.8,0.8-1.6,1.5-2.2,2c-1.2,0.9-1.9,1.2-2.4,1.2c-0.6,0-0.7-0.7-0.7-1.1c0-2.9,3.1-8.5,3.3-8.7
				c0.8-1.5,1.6-2.7,2.2-3.9c1.1-2,2.3-4.3,2.5-4.8c0,0,0-0.1,0.1-0.2c0-0.1,0.1-0.2,0.1-0.2c0-0.2-0.1-0.5-0.6-0.5
				c-2.2,0-5.8,2.2-5.8,3.7c0,0.3,0.2,0.7,1,0.7c0.2,0,0.4,0,0.6,0c0.3,0,0.7-0.1,1.1-0.2h0.1c0,0,0.1,0,0.2,0
				c0.1,0,0.2,0.1,0.2,0.2c0,0.6-2.4,1.1-2.7,1.1c-0.1,0-0.2,0-0.2,0c-0.2,0-0.4,0.1-0.7,0.1c-0.7,0-1.5-0.2-1.6-0.8
				c0-0.3,0.1-1.5,2.6-3.2c0.7-0.4,1.4-0.8,2.1-1.1c1.3-0.6,3.1-1.1,5-1.1c0.6,0,1.5,0,1.5,0.7c0,0.5-0.5,1.6-4,7.8
				c0.1-0.3-4,7.1-4,8.8c0,0.2,0,0.5,0.3,0.5c0.2,0,0.4-0.2,0.7-0.3c0.6-0.5,1.3-1.1,2.2-1.9c1.5-1.4,3.6-3.6,6.7-7.1
				c0.7-0.7,1.2-1.4,1.8-2c1-1,2-2,2.4-2.3c0.1-0.1,0.2-0.1,0.4-0.2c0.2-0.1,0.6-0.2,1-0.2c0.2,0,0.7,0,0.7,0.3
				c-1,1.7-1.8,3.4-2.5,5.2c-1.3,2.9-2.6,6.3-2.6,8.6c0,0.3,0.1,0.8,0.6,0.8c0.2,0,0.4-0.1,0.7-0.2C185.8,91,192.7,81.8,192.7,77.3z
				"/>
			<path class="st0" d="M199.1,86.9c0,3.4-4.8,8.3-8.3,8.3c-1.4,0-1.9-1-1.9-2.3c0-3.8,4.3-8.9,8.4-8.9c0.4,0,1.2,0,1.2,0.2
				c0,0.2-0.2,0.2-0.3,0.2c-3.3,0.1-7.3,5.8-7.3,8.4c0,0.7,0.2,1.3,1.1,1.3c2.4,0,5.2-4,5.2-7.2c0-0.4-0.1-0.7-0.2-0.8
				c-0.1-0.1-0.1-0.2-0.2-0.2c-0.1-0.1-0.2-0.2-0.2-0.2c0-0.3,1.5-0.4,2.6-0.4c0.4,0,0.8,0,1.1,0c0.2,0,0.3,0,0.4,0
				c0.2,0,0.4,0.1,0.4,0.2c0,0.2-0.1,0.2-0.2,0.2c-0.1,0-0.1,0-0.2,0c-0.2,0-2,0.3-2,0.8C199,86.8,199.1,86.9,199.1,86.9z"/>
			<path class="st0" d="M204.8,94.5c-0.2,0.2-0.7,0.4-1.2,0.4c-0.2,0-0.8,0-0.8-0.2c0,0,0-0.1,0.1-0.2c0.9-1.2,5.9-8,5.9-8.7
				c0-0.1-0.1-0.2-0.2-0.2c-0.2,0-0.3,0.1-0.6,0.2c-2.1,1.1-4.5,3.4-6.3,5.2c-1.1,1.1-2,2.3-3,3.5c-0.2,0.4-0.7,0.4-1.2,0.4
				c-0.4,0-0.8,0-0.8-0.2c0-0.1,0-0.2,0.1-0.2c2.2-3.7,5.7-8.7,7-10.3c0.1-0.1,0.2-0.2,0.2-0.2c0.2-0.2,0.6-0.2,1.2-0.2
				c0.7,0,0.8,0.1,0.8,0.2c0,0,0,0.1-0.1,0.2c0,0.1-0.1,0.1-0.1,0.2c-1,1.5-4.2,5.5-4.2,5.8c0,0,0,0.1,0.1,0.1c0,0,0.1,0,0.2-0.1
				c0.2-0.2,6-5.8,8.5-5.8c0.2,0,0.8,0.1,0.8,0.6c0,1.1-2.9,4.6-2.9,4.7c0,0.1,0,0.1,0.1,0.1s0.2-0.1,0.2-0.2
				c1.3-1.4,5.9-5.4,8.2-5.4c0.2,0,0.8,0.1,0.8,0.6c0,1.2-5.6,7.2-5.6,9.2c0,0.2,0.2,0.5,0.4,0.5c0.8,0,2-1.2,2.8-1.9
				c0.8-0.7,1.9-1.7,3-2.9l0.1-0.1c0.1,0,0.2,0.1,0.2,0.3c0,0.2-0.1,0.3-0.2,0.6c-0.2,0.2-0.4,0.5-0.7,0.7c-0.4,0.4-1.1,1.1-1.7,1.6
				c-0.6,0.5-1.1,1-1.6,1.4c-1,0.7-2,1.4-2.9,1.4c-1.1,0-1.1-0.8-1.1-1.1c0-2.8,5-7.9,5-8.7c0-0.1-0.1-0.2-0.2-0.2
				c-0.1,0-0.2,0-0.2,0.1c-0.1,0-0.1,0-0.2,0.1C210.4,87.8,205.7,93.3,204.8,94.5z"/>
			<path class="st0" d="M229.8,89.5C229.8,89.5,229.8,89.4,229.8,89.5c0.2-0.1,0.2,0.1,0.2,0.2c0,0.2-0.1,0.3-0.2,0.6
				c-0.2,0.2-0.4,0.5-0.7,0.7c-0.4,0.4-1.1,1.1-1.7,1.6c-1.4,1.2-3,2.5-4.3,2.5c-0.8,0-1-0.7-1-1c0-1.9,2.5-5.3,2.6-5.4
				c0.1-0.1,0.1-0.2,0.1-0.2c0,0,0-0.1-0.1-0.1c-0.1,0-0.1,0-0.2,0l-0.1,0.1c-1.1,0.9-3.9,4.3-5.6,5.5c-0.6,0.4-1.4,1-2,1
				c-0.5,0-0.7-0.2-0.7-1.1c0-3.9,4.7-9.7,9.3-9.7c0.7,0,1.2,0.1,1.8,0.4l0,0h0.1c0.1,0,0.1,0,0.2-0.1c0.1-0.2,0.2-0.2,0.2-0.3
				c0.2-0.2,0.3-0.3,0.5-0.5c0.3-0.2,0.7-0.3,1.2-0.3c0.2,0,0.5,0,0.5,0.2c0,0,0,0.1-0.1,0.2c-0.7,0.9-1.4,1.8-2,2.7
				c-1.1,1.6-2.5,3.5-3.4,5.2c-0.1,0.2-0.2,0.4-0.2,0.6c-0.2,0.3-0.2,0.7-0.2,1c0,0.2,0.1,0.4,0.4,0.4c0.8,0,1.6-0.8,2.2-1.3
				C227.6,91.7,228.6,90.7,229.8,89.5z M219.1,92.7c0.2,0,0.3-0.1,0.5-0.2c1.4-1,4-4.2,7.4-7.1c0.1-0.1,0.1-0.1,0.1-0.2
				c0-0.2-0.6-0.6-1.2-0.6c-2.7,0-7,5.8-7,7.6C218.9,92.7,218.9,92.7,219.1,92.7z"/>
			<path class="st0" d="M237.7,94.1c-1,0.7-2,1.4-2.9,1.4c-1.1,0-1.1-0.8-1.1-1.1c0-2.8,5-7.9,5-8.7c0-0.1-0.1-0.2-0.2-0.2
				c-0.1,0-0.2,0-0.2,0.1c-0.1,0-0.1,0-0.2,0.1c-3.8,2-8.5,7.2-9.6,8.9c0,0.1-0.1,0.1-0.2,0.2s-0.2,0.2-0.3,0.2
				c-0.2,0.1-0.6,0.1-0.8,0.1c-0.6,0-0.8-0.1-0.8-0.2c0-0.1,0-0.2,0-0.2s0-0.1,0.1-0.1c2.2-3.7,5.6-8.7,6.9-10.3
				c0.2-0.2,0.5-0.5,1.5-0.5c0.7,0,0.8,0.1,0.8,0.2c0,0,0,0.1-0.1,0.2c0,0.1-0.1,0.1-0.1,0.2c-1.2,1.6-3.3,4.3-4.2,5.7
				c0,0-0.1,0.1-0.1,0.2c0,0.1,0,0.1,0.1,0.1c0.1,0,0.1-0.1,0.2-0.1l0.1-0.1c1.2-1.2,6.2-5.9,8.8-5.9c0.2,0,0.8,0.1,0.8,0.6
				c0,1.2-5.6,7.2-5.6,9.2c0,0.2,0.2,0.5,0.4,0.5c0.8,0,2-1.2,2.8-1.9c0.8-0.7,1.9-1.7,3-2.9l0.1-0.1c0.1,0,0.2,0.1,0.2,0.3
				c0,0.2-0.1,0.3-0.2,0.6c-0.2,0.2-0.4,0.5-0.7,0.7c-0.4,0.4-1.1,1.1-1.7,1.6C238.8,93.2,238.2,93.6,237.7,94.1z"/>
		</g>
	</g>
</g>
</svg>
